




IMDb: http://www.imdb.com/title/tt1392170/
------------------------------------------



The Hunger Games DVDSRC.AC3.TOTAL
----------------------------------------------


Plot:
----
Set in a future where the Capitol selects a boy and girl from
the twelve districts to fight to the death on live television,
Katniss Everdeen volunteers to take her younger sister's place
for the latest match.
--------------------

Screenshots:
-----------
 
http://imageshack.us/photo/my-images/201/81403308.jpg/ 
http://imageshack.us/photo/my-images/193/10684415.jpg/ 
http://imageshack.us/photo/my-images/28/17490449.jpg/ 
http://imageshack.us/photo/my-images/38/90669641.jpg/ 
http://imageshack.us/photo/my-images/856/92629209.jpg/ 
http://imageshack.us/photo/my-images/69/85389923.jpg/ 
http://imageshack.us/photo/my-images/685/67379728.jpg/ 
http://imageshack.us/photo/my-images/11/48038335.jpg/ 
http://imageshack.us/photo/my-images/689/20972444.jpg/ 
http://imageshack.us/photo/my-images/692/38796917.jpg/


Details:
-------
Video
ID                               : 0
Format                           : MPEG-4 Visual
Format profile                   : AdvancedSimple@L5
Format settings, BVOP            : Yes
Format settings, QPel            : No
Format settings, GMC             : No warppoints
Format settings, Matrix          : Custom
Codec ID                         : XVID
Codec ID/Hint                    : XviD
Duration                         : 2h 22mn
Bit rate                         : 1 625 Kbps
Width                            : 720 pixels
Height                           : 304 pixels
Display aspect ratio             : 2.35:1
Frame rate                       : 23.976 fps
Resolution                       : 24 bits
Colorimetry                      : 4:2:0
Scan type                        : Progressive
Bits/(Pixel*Frame)               : 0.310
Stream size                      : 691 MiB (99%)
Writing library                  : XviD 58
Audio
ID                               : 1
Format                           : AC-3
Format/Info                      : Audio Coding 3
Codec ID                         : 2000
Duration                         : 2h 22mn
Bit rate mode                    : Constant
Bit rate                         : 192 Kbps
Channel(s)                       : 2 channels
Channel positions                : L R
Sampling rate                    : 48.0 KHz
Stream size                      : 147 MiB (11%)
Alignment                        : Aligned on interleaves
Interleave, duration             : 64 ms (1.53 video frames)
Interleave, preload duration     : 192 ms
-----------------------------------------
